<svg xmlns="http://www.w3.org/2000/svg" width="79" height="73" fill="none"><path fill="#fff" d="M35.734 23.66c15.236.852 27.08 14.364 31.794 35.98-3.551-1.744-4.11-7.347-8.89-6.778-.308.578-.814.994-.796 1.174 2.647 5.486 5.212 11.071 8.12 16.44 1.004 1.816 3.245 2.323 4.709.534 3.01-3.678 6.2-7.373 8.108-12.949-2.675.633-4.546 1.093-5.793 1.4-1.897-6.2-3.25-12.453-5.735-18.137C61.506 27.659 51.413 18.9 36.35 17.028c-2.404-.308-3.434-1.483-4.617-3.281C26.845 5.929 19.653 1.536 10.453.812 7.146.594 3.396.512.738 4.976 6.956 3.26 12.143 4.02 17.131 6.442c4.807 2.441 8.963 5.677 11.113 10.756-3.787 3.207-7.809 5.89-10.737 9.469-3.028 3.496-5.523 7.761-7.196 12.035-1.754 4.374.143 8.748 3.55 10.872 3.325 2.224 7.663 1.79 11.368-1.317 5.893-4.97 9.057-11.674 10.125-19.265.1-1.744.28-3.587.38-5.332m-5.34.442c.17 8.106-2.606 14.133-7.577 19.193-1.663 1.626-3.624 3.009-5.892 1.318-1.97-1.446-1.644-3.669-.74-5.584 2.658-6.29 7.105-11.114 14.208-14.927"/></svg>