<svg xmlns="http://www.w3.org/2000/svg" width="53" height="53" fill="none"><path fill="#fff" d="M26.338 4.367c-12.052 0-21.833 9.78-21.833 21.832s9.781 21.833 21.833 21.833S48.17 38.25 48.17 26.199 38.39 4.367 26.338 4.367m-8.886 16.898a1.615 1.615 0 0 1-2.074 1.004c-.851-.305-1.31-1.222-1.004-2.074a4.895 4.895 0 0 1 4.628-3.297 4.87 4.87 0 0 1 4.629 3.297c.283.852-.153 1.79-1.005 2.074-.174.066-.349.088-.546.088a1.63 1.63 0 0 1-1.55-1.114c-.218-.633-.851-1.07-1.528-1.07s-1.31.437-1.528 1.07zm8.886 18.034c-4.389 0-8.013-3.232-8.646-7.445-.087-.677.415-1.288 1.092-1.288h15.108c.677 0 1.179.61 1.091 1.288a8.71 8.71 0 0 1-8.645 7.445M37.494 22.29a1.5 1.5 0 0 1-.546.087 1.63 1.63 0 0 1-1.55-1.113c-.218-.633-.851-1.07-1.528-1.07s-1.31.437-1.528 1.07a1.615 1.615 0 0 1-2.074 1.004c-.852-.305-1.31-1.222-1.005-2.074a4.895 4.895 0 0 1 4.629-3.297 4.87 4.87 0 0 1 4.628 3.297c.284.852-.153 1.79-1.004 2.074z"/></svg>