<svg xmlns="http://www.w3.org/2000/svg" width="140" height="38" fill="none"><path fill="#fff" d="M62.504 30H45.13a2 2 0 0 1-.762-.146 2 2 0 0 1-.615-.396 2 2 0 0 1-.396-.615 2 2 0 0 1-.146-.762V8.994h3.808v17.197h15.484zm24.521-8.496q0 1.92-.659 3.53a8.4 8.4 0 0 1-1.83 2.783 8.4 8.4 0 0 1-2.784 1.831q-1.597.645-3.486.645h-5.157q-1.89 0-3.5-.645a8.4 8.4 0 0 1-2.784-1.83 8.6 8.6 0 0 1-1.846-2.784q-.659-1.61-.659-3.53V17.49q0-1.904.66-3.515a8.4 8.4 0 0 1 1.845-2.784 8.4 8.4 0 0 1 2.783-1.83q1.612-.66 3.501-.66h5.157q1.89 0 3.486.66a8.4 8.4 0 0 1 2.783 1.83 8.2 8.2 0 0 1 1.831 2.784q.66 1.611.66 3.515zm-3.808-4.014q0-1.127-.366-2.036a4.3 4.3 0 0 0-1.011-1.567 4.3 4.3 0 0 0-1.568-1.011 5.3 5.3 0 0 0-2.006-.366h-5.157q-1.112 0-2.036.366a4.5 4.5 0 0 0-1.567 1.01 4.5 4.5 0 0 0-1.025 1.568q-.352.909-.352 2.036v4.014q0 1.128.352 2.05a4.6 4.6 0 0 0 1.025 1.568q.66.645 1.567 1.01a5.7 5.7 0 0 0 2.036.352h5.127q1.113 0 2.022-.351a4.7 4.7 0 0 0 1.582-1.01q.66-.66 1.01-1.568.367-.924.367-2.051zm28.301 10.591q0 .41-.147.762a1.832 1.832 0 0 1-1.011 1.01 2 2 0 0 1-.761.147h-13.74q-.528 0-1.143-.117a6.4 6.4 0 0 1-1.201-.396 6 6 0 0 1-1.128-.673 5 5 0 0 1-.967-1.011q-.41-.6-.66-1.377a5.9 5.9 0 0 1-.248-1.773V14.341q0-.528.117-1.128.132-.615.395-1.201.264-.6.689-1.143.425-.542 1.01-.952.601-.425 1.378-.674t1.757-.249h15.484v3.809H95.858q-.747 0-1.142.395-.396.396-.396 1.172v10.283q0 .733.396 1.143.41.395 1.142.395h11.851v-4.775H97.572v-3.838H109.6q.41 0 .761.161.352.147.601.41.263.264.41.616.147.336.147.732zm26.015-6.577q0 1.92-.659 3.53a8.4 8.4 0 0 1-1.831 2.783 8.4 8.4 0 0 1-2.783 1.831q-1.597.645-3.487.645h-5.156q-1.89 0-3.501-.645a8.4 8.4 0 0 1-2.783-1.83 8.6 8.6 0 0 1-1.846-2.784q-.659-1.61-.659-3.53V17.49q0-1.904.659-3.515.675-1.626 1.846-2.784a8.4 8.4 0 0 1 2.783-1.83q1.611-.66 3.501-.66h5.156q1.89 0 3.487.66a8.4 8.4 0 0 1 2.783 1.83 8.2 8.2 0 0 1 1.831 2.784q.659 1.611.659 3.515zm-3.808-4.014q0-1.127-.367-2.036a4.3 4.3 0 0 0-1.01-1.567 4.3 4.3 0 0 0-1.568-1.011 5.3 5.3 0 0 0-2.007-.366h-5.156q-1.113 0-2.036.366a4.5 4.5 0 0 0-1.567 1.01q-.66.645-1.026 1.568-.351.909-.351 2.036v4.014q0 1.128.351 2.05a4.6 4.6 0 0 0 1.026 1.568q.659.645 1.567 1.01a5.7 5.7 0 0 0 2.036.352h5.127q1.113 0 2.022-.351a4.7 4.7 0 0 0 1.582-1.01q.659-.66 1.01-1.568.367-.924.367-2.051z"/><circle cx="21.5" cy="20.5" r="9.5" fill="#fff"/><circle cx="9.5" cy="20.5" r="9.5" fill="#F3CC30"/></svg>