<svg xmlns="http://www.w3.org/2000/svg" width="43" height="40" fill="none"><path fill="#fff" d="M41.181 20.27h-3.275a4.365 4.365 0 0 0-4.366 4.366 4.365 4.365 0 0 0 4.366 4.366h3.275c.603 0 1.092.49 1.092 1.092v5.458a4.365 4.365 0 0 1-4.367 4.367h-7.641a1.09 1.09 0 0 1-1.092-1.092v-3.275a4.365 4.365 0 0 0-4.366-4.366 4.365 4.365 0 0 0-4.367 4.366v3.275c0 .602-.489 1.092-1.091 1.092H13.89a4.365 4.365 0 0 1-4.366-4.367v-5.458c0-.603-.489-1.092-1.092-1.092H5.158A4.365 4.365 0 0 1 .79 24.636a4.365 4.365 0 0 1 4.367-4.367h3.274c.603 0 1.092-.489 1.092-1.091V13.72a4.365 4.365 0 0 1 4.367-4.367h5.458c.602 0 1.091-.489 1.091-1.092V4.987A4.365 4.365 0 0 1 24.807.62a4.365 4.365 0 0 1 4.366 4.367V8.26c0 .603.49 1.092 1.092 1.092h7.641a4.365 4.365 0 0 1 4.367 4.367v5.458c0 .602-.49 1.091-1.092 1.091"/></svg>