<svg xmlns="http://www.w3.org/2000/svg" width="53" height="53" fill="none"><path fill="#fff" d="M15.935 42.966c-1.66 1.66-7.97 3.231-8.668 3.406h-.13a.63.63 0 0 1-.394-.153c-.13-.13-.196-.327-.13-.524.196-.742 1.986-7.313 3.623-8.973.852-.851 1.965-1.331 3.079-1.288 1.07.022 2.117.48 2.925 1.288 1.638 1.638 1.485 4.432-.327 6.244zm1.55-26.985a11.44 11.44 0 0 0-8.755 7.03L6.634 28.23a.51.51 0 0 0 .087.546c.11.131.262.197.415.197.044 0 .087 0 .11-.022l7.357-1.637c1.397-4.52 2.772-8.144 5.414-11.856zm8.23 22.4c4.476-1.266 8.1-2.576 11.834-5.196l-.502 2.358c-.612 3.908-3.319 7.249-7.03 8.711l-5.218 2.096s-.131.044-.197.044a.5.5 0 0 1-.35-.131.53.53 0 0 1-.174-.524zm-7.073-15.959 12.03 12.008c-1.376.568-2.817 1.048-4.41 1.506-1.049.306-2.184.612-3.363.94-.087 0-.196.043-.284.043-.284 0-.567-.11-.786-.328l-5.501-5.501a1.07 1.07 0 0 1-.262-1.092c.349-1.135.676-2.205 1.004-3.231.502-1.55 1.004-2.991 1.572-4.345m27.29-14.606a1.07 1.07 0 0 0-.873-.851c-.917-.175-2.642-.415-4.803-.415-4.192 0-9.977.939-14.3 5.283a45 45 0 0 0-2.86 3.122c-1.463 1.79-2.577 3.537-3.472 5.371l.044.022 13.1 13.078.043.043c1.79-.851 3.471-1.921 5.218-3.318a43 43 0 0 0 3.275-2.97c6.571-6.571 5.152-16.636 4.628-19.365M33.881 24.06c-2.707 0-4.913-2.183-4.913-4.89a4.92 4.92 0 0 1 4.913-4.912 4.92 4.92 0 0 1 4.912 4.912c0 2.707-2.205 4.89-4.912 4.89"/></svg>