<svg xmlns="http://www.w3.org/2000/svg" width="53" height="53" fill="none"><path fill="#fff" d="M35.462 34.908c-.401.39-.585.954-.491 1.504l1.26 7.307c.255 1.483-1.304 2.614-2.638 1.915l-6.602-3.456a1.7 1.7 0 0 0-1.58 0l-6.598 3.452c-1.339.7-2.9-.433-2.642-1.917l1.258-7.303a1.7 1.7 0 0 0-.491-1.504l-5.504-5.34c-1.011-.981-.455-2.695.94-2.896l7.614-1.1a1.7 1.7 0 0 0 1.28-.928l3.298-6.652c.668-1.35 2.598-1.35 3.268 0l3.297 6.652c.249.5.727.847 1.281.928l7.613 1.1c1.395.203 1.954 1.915.941 2.895zM26.2 12.554c.904 0 1.637-.734 1.637-1.638V6.55a1.638 1.638 0 0 0-3.275 0v4.366c0 .904.734 1.637 1.638 1.637m13.1 8.732c.903 0 1.637-.733 1.637-1.637v-13.1a1.638 1.638 0 0 0-3.275 0v13.1c0 .904.733 1.637 1.637 1.637m-26.2 0c.904 0 1.638-.733 1.638-1.637v-13.1a1.638 1.638 0 0 0-3.275 0v13.1c0 .904.733 1.637 1.637 1.637"/></svg>