<svg xmlns="http://www.w3.org/2000/svg" width="131" height="24" fill="none"><path fill="#F3CC30" d="m12.595.212 3.48 6.956a.4.4 0 0 0 .296.213l7.772 1.113c.1.02.188.076.247.157a.39.39 0 0 1-.044.505l-5.607 5.413a.38.38 0 0 0-.114.342l1.331 7.646a.39.39 0 0 1-.066.288.4.4 0 0 1-.251.16.4.4 0 0 1-.251-.04l-6.961-3.609a.4.4 0 0 0-.366 0l-6.96 3.608a.396.396 0 0 1-.547-.196.4.4 0 0 1-.023-.211L5.86 14.92a.38.38 0 0 0-.111-.342L.116 9.165a.385.385 0 0 1-.086-.423q.031-.072.086-.125c.061-.06.14-.1.226-.113l7.78-1.116a.39.39 0 0 0 .296-.21L11.9.222a.38.38 0 0 1 .227-.195.396.396 0 0 1 .47.185"/><path fill="#F7DB5E" d="M12.242 1.82 9.143 7.746a1.03 1.03 0 0 1-.83.55l-6.738.607 7.114.314c.22.01.438-.05.622-.17s.325-.294.401-.498z"/><path fill="#EDBD31" d="m4.685 21.68-.156.877a.39.39 0 0 0 .159.378.4.4 0 0 0 .413.033l6.964-3.611a.4.4 0 0 1 .366 0l6.945 3.61a.4.4 0 0 0 .53-.162.4.4 0 0 0 .039-.248l-1.316-7.636a.38.38 0 0 1 .114-.345l5.63-5.414a.39.39 0 0 0 .086-.423.406.406 0 0 0-.312-.239l-2.606-.372C17.332 15.586 10.877 19.513 4.685 21.68"/><path fill="#F3CC30" d="m39.138.212 3.48 6.956a.39.39 0 0 0 .296.213l7.78 1.113c.104.015.197.07.26.152a.385.385 0 0 1-.04.51l-5.632 5.413a.38.38 0 0 0-.111.342l1.328 7.646a.38.38 0 0 1-.155.379.39.39 0 0 1-.414.028l-6.96-3.608a.4.4 0 0 0-.366 0l-6.961 3.608a.4.4 0 0 1-.414-.029.39.39 0 0 1-.159-.378l1.339-7.637a.38.38 0 0 0-.112-.341l-5.641-5.423a.383.383 0 0 1 0-.549c.06-.06.14-.1.225-.113l7.781-1.116a.39.39 0 0 0 .296-.21l3.49-6.956A.39.39 0 0 1 38.8 0a.4.4 0 0 1 .352.212z"/><path fill="#F7DB5E" d="m38.785 1.82-3.103 5.925a1.03 1.03 0 0 1-.83.55l-6.731.607 7.113.314c.22.01.438-.05.622-.17s.325-.294.402-.498z"/><path fill="#EDBD31" d="m31.222 21.68-.152.877a.38.38 0 0 0 .155.379.4.4 0 0 0 .414.032l6.96-3.611a.4.4 0 0 1 .366 0l6.961 3.61a.403.403 0 0 0 .53-.162.37.37 0 0 0 .04-.248l-1.33-7.636a.39.39 0 0 1 .115-.345l5.632-5.414a.39.39 0 0 0-.225-.661l-2.607-.373c-4.208 7.458-10.667 11.385-16.859 13.552"/><path fill="#F3CC30" d="m65.673.212 3.496 6.956a.4.4 0 0 0 .296.214l7.758 1.112c.103.015.196.07.259.152a.385.385 0 0 1-.04.51l-5.622 5.413a.38.38 0 0 0-.115.342l1.329 7.646a.38.38 0 0 1-.155.38.39.39 0 0 1-.414.027l-6.961-3.608a.4.4 0 0 0-.366 0l-6.96 3.608a.396.396 0 0 1-.531-.163.36.36 0 0 1-.038-.244l1.328-7.636a.38.38 0 0 0-.114-.342l-5.63-5.423a.386.386 0 0 1 0-.549c.062-.06.14-.1.226-.113l7.785-1.116a.39.39 0 0 0 .295-.21L64.996.212a.39.39 0 0 1 .35-.212.4.4 0 0 1 .352.212z"/><path fill="#F7DB5E" d="m65.32 1.821-3.102 5.925a1.042 1.042 0 0 1-.826.549l-6.736.608 7.117.313c.22.01.438-.048.621-.169.184-.12.324-.295.4-.499z"/><path fill="#EDBD31" d="m57.758 21.679-.153.878c-.017.1.006.204.066.288a.395.395 0 0 0 .503.122l6.97-3.61a.4.4 0 0 1 .366 0l6.945 3.61a.4.4 0 0 0 .531-.163.4.4 0 0 0 .042-.247l-1.323-7.637a.39.39 0 0 1 .112-.344l5.632-5.414a.385.385 0 0 0 0-.549.4.4 0 0 0-.226-.113l-2.606-.373C70.408 15.585 63.95 19.513 57.758 21.68"/><path fill="#F3CC30" d="m92.212.213 3.496 6.956a.4.4 0 0 0 .295.213l7.785 1.113c.102.015.195.07.257.152a.384.384 0 0 1-.038.51l-5.632 5.413a.39.39 0 0 0-.115.342l1.332 7.645a.4.4 0 0 1-.067.288.4.4 0 0 1-.25.16.4.4 0 0 1-.252-.04l-6.96-3.608a.4.4 0 0 0-.367 0l-6.96 3.608a.396.396 0 0 1-.547-.196.4.4 0 0 1-.022-.212l1.322-7.636a.38.38 0 0 0-.111-.342l-5.633-5.413a.385.385 0 0 1-.086-.423q.031-.071.086-.126c.061-.06.14-.1.226-.113l7.781-1.116a.39.39 0 0 0 .296-.21L91.544.222a.39.39 0 0 1 .227-.195.4.4 0 0 1 .3.023q.094.061.14.163"/><path fill="#F7DB5E" d="m91.846 1.821-3.1 5.925a1.03 1.03 0 0 1-.829.549l-6.735.608 7.117.313c.22.01.437-.048.621-.169a1.02 1.02 0 0 0 .399-.499z"/><path fill="#EDBD31" d="m84.3 21.68-.156.877c-.017.101.006.205.066.289a.395.395 0 0 0 .503.122l6.961-3.611a.4.4 0 0 1 .366 0l6.96 3.61a.403.403 0 0 0 .531-.162.4.4 0 0 0 .039-.248l-1.326-7.636a.39.39 0 0 1 .111-.345l5.633-5.414a.383.383 0 0 0 0-.548.4.4 0 0 0-.226-.113l-2.606-.373C96.947 15.586 90.492 19.513 84.3 21.68"/><path fill="#F3CC30" d="m118.508.213 3.496 6.956a.4.4 0 0 0 .296.213l7.784 1.113c.103.015.196.07.258.152s.09.185.076.287a.4.4 0 0 1-.114.222l-5.633 5.414a.38.38 0 0 0-.114.342l1.332 7.645a.396.396 0 0 1-.318.448.4.4 0 0 1-.251-.04l-6.961-3.608a.4.4 0 0 0-.366 0l-6.961 3.608a.4.4 0 0 1-.414-.028.38.38 0 0 1-.155-.38l1.323-7.636a.39.39 0 0 0-.112-.342l-5.632-5.413a.383.383 0 0 1 0-.549c.061-.06.14-.1.226-.113l7.781-1.116a.39.39 0 0 0 .295-.21l3.497-6.956a.385.385 0 0 1 .379-.213.4.4 0 0 1 .148.04.4.4 0 0 1 .14.164"/><path fill="#F7DB5E" d="m118.142 1.821-3.099 5.925a1.044 1.044 0 0 1-.829.549l-6.736.608 7.117.313c.22.01.438-.048.621-.169.184-.12.324-.295.399-.499z"/><path fill="#EDBD31" d="m110.596 21.68-.155.877c-.018.101.006.205.065.289a.396.396 0 0 0 .504.122l6.961-3.611a.4.4 0 0 1 .365 0l6.961 3.61a.403.403 0 0 0 .531-.162.4.4 0 0 0 .038-.248l-1.325-7.636a.39.39 0 0 1 .111-.345l5.632-5.414a.383.383 0 0 0 0-.548.4.4 0 0 0-.226-.113l-2.606-.373c-4.208 7.458-10.664 11.385-16.856 13.552"/></svg>